HIERARCHY
ROOT Hips
{
  OFFSET 0 0 0
  CHANNELS 6 Xposition Yposition Zposition Zrotation Yrotation Xrotation
  JOINT LeftThigh
  {
    OFFSET 8.409438 0 -5.917753
    CHANNELS 3 Zrotation Yrotation Xrotation
    JOINT LeftLeg
    {
      OFFSET 0 0 -42.358652
      CHANNELS 3 Zrotation Yrotation Xrotation
      JOINT LeftFoot
      {
        OFFSET 0 0 -39.357303
        CHANNELS 3 Zrotation Yrotation Xrotation
      }
    }
  }
  JOINT RightThigh
  {
    OFFSET -8.409438 0 -5.917753
    CHANNELS 3 Zrotation Yrotation Xrotation
    JOINT RightLeg
    {
      OFFSET 0 0 -42.358652
      CHANNELS 3 Zrotation Yrotation Xrotation
      JOINT RightFoot
      {
        OFFSET 0 0 -39.357303
        CHANNELS 3 Zrotation Yrotation Xrotation
      }
    }
  }
  JOINT SpineLow
  {
    OFFSET 0 0 4.719101
    CHANNELS 3 Zrotation Yrotation Xrotation
    JOINT SpineMid
    {
      OFFSET 0 0 12.899191
      CHANNELS 3 Zrotation Yrotation Xrotation
      JOINT Chest
      {
        OFFSET 0 0 12.899191
        CHANNELS 3 Zrotation Yrotation Xrotation
        JOINT LeftShoulder
        {
          OFFSET 7.550562 1.41573 9.438202
          CHANNELS 3 Zrotation Yrotation Xrotation
          JOINT LeftArm
          {
            OFFSET 9.155056 0 4.247191
            CHANNELS 3 Zrotation Yrotation Xrotation
            JOINT LeftForearm
            {
              OFFSET 0 0 25.771955
              CHANNELS 3 Zrotation Yrotation Xrotation
              JOINT LeftHand
              {
                OFFSET 0 0 25.197169
                CHANNELS 3 Zrotation Yrotation Xrotation
              }
            }
          }
        }
        JOINT RightShoulder
        {
          OFFSET -7.550562 1.41573 9.438202
          CHANNELS 3 Zrotation Yrotation Xrotation
          JOINT RightArm
          {
            OFFSET -9.155056 0 4.247191
            CHANNELS 3 Zrotation Yrotation Xrotation
            JOINT RightForearm
            {
              OFFSET 0 0 -25.771955
              CHANNELS 3 Zrotation Yrotation Xrotation
              JOINT RightHand
              {
                OFFSET 0 0 -25.197169
                CHANNELS 3 Zrotation Yrotation Xrotation
              }
            }
          }
        }
        JOINT Neck
        {
          OFFSET 0 0 15.101124
          CHANNELS 3 Zrotation Yrotation Xrotation
          JOINT Head
          {
            OFFSET 0 0 11.325843
            CHANNELS 3 Zrotation Yrotation Xrotation
            End Site
            {
              OFFSET 0 0 14.157303
            }
          }
        }
      }
    }
  }
}
MOTION
Frames: 8
Frame Time: 0.0
0.0  101.685394  0.0  82.406567  -53.654365  -167.105939  50.527538  -35.56736  -39.37305  11.152579  15.384496  87.109915  -9.797621  -4.974098  -2.024299  -12.899288  21.6088  -19.701139  6.080021  -3.325212  28.029988  12.396903  17.810726  5.117999  3.523947  2.787836  4.326415  10.130964  6.942493  12.246033  10.130964  6.942493  12.246033  1.254245  18.566739  8.383396  166.619414  36.967205  169.881523  -39.630639  2.507298  74.353895  53.633941  -40.953962  34.292982  27.317361  -9.022646  18.384511  130.748653  68.297818  60.599469  -26.948649  -8.514815  -102.882662  71.056578  30.359389  3.33556  4.96155  10.473008  2.485648  3.667777  7.875615  1.773269  
0.0  101.685394  0.0  79.474923  -53.703235  -164.665908  48.901177  -35.522244  -39.798651  13.20095  20.255262  88.552375  -7.211491  -4.567842  -1.944808  -14.696963  20.514476  -19.001677  7.004818  -3.289766  27.941862  12.126746  18.734524  5.213585  3.531961  2.755008  4.307294  10.144187  6.854904  12.188602  10.144186  6.854904  12.188602  1.648738  18.572882  8.098563  166.322954  37.313064  170.34635  -39.533958  1.086093  74.280481  52.874695  -40.89811  34.705931  28.123177  -9.094491  18.126775  129.057952  67.748448  61.035698  -25.481344  -8.87481  -103.496451  72.970828  30.464571  4.67998  4.930448  10.117374  2.608057  3.644663  7.609735  1.868684  
0.0  101.685394  0.0  76.00903  -53.727351  -161.898852  47.35956  -35.316126  -40.146006  15.036238  24.393634  89.561426  -4.86207  -4.308428  -1.787154  -16.309114  19.331731  -18.048232  8.230278  -2.873787  28.007671  11.993859  19.396309  5.322482  3.463314  2.657898  4.298292  9.935895  6.605587  12.140268  9.935894  6.605587  12.140267  2.27118  18.831843  7.930446  165.882326  37.694537  170.927535  -39.493736  -0.286661  74.032524  52.203852  -40.888259  35.242254  28.947743  -9.022664  18.044697  126.927219  67.117166  61.143963  -25.644076  -8.17534  -103.912873  72.772495  30.089951  4.435205  4.965524  9.908776  2.723137  3.670341  7.454379  1.956153  
0.0  101.685394  0.0  72.194702  -53.625364  -158.739926  46.052588  -34.896256  -40.80688  16.796915  27.471951  90.608338  -3.149561  -4.23909  -1.655185  -17.303989  18.189069  -16.995626  9.627433  -2.29687  28.153968  11.650863  19.723913  5.590897  3.343298  2.517861  4.265075  9.576836  6.252741  12.014602  9.576837  6.252741  12.014602  2.892648  19.286867  7.959628  165.505708  38.076681  171.715001  -39.410072  -1.614826  73.737717  51.617976  -40.862169  35.739026  29.779824  -9.188885  18.498727  125.28405  66.529208  62.150855  -25.794294  -7.407258  -104.315962  72.537671  29.764939  4.210847  5.274557  9.942662  2.98198  3.897087  7.483504  2.144439  
0.0  101.685394  0.0  68.752309  -53.591786  -155.875399  45.320669  -34.206723  -41.780879  18.294867  28.787403  91.881316  -2.611882  -4.302505  -1.694331  -16.67851  17.150444  -15.726582  10.722741  -1.790063  28.546867  11.081817  19.80473  6.055656  3.265003  2.351161  4.226559  9.326711  5.820049  11.875128  9.326711  5.820049  11.875128  3.398171  19.813979  8.187199  165.124496  38.442122  172.67257  -39.304024  -2.871115  73.455148  51.126068  -40.810467  36.086527  30.114038  -8.94752  18.775018  122.894253  65.751561  62.057269  -25.937607  -6.625774  -104.725061  72.21503  29.517829  4.078869  5.377022  9.947191  3.073854  3.97221  7.488243  2.211456  
0.0  101.685394  0.0  64.282653  -53.311244  -151.793842  44.63784  -32.913  -43.4855  19.111268  28.608755  93.292115  -3.014125  -4.403899  -1.979787  -15.489827  15.93829  -14.808269  11.330002  -1.366552  29.424964  10.269482  19.768027  6.612454  3.106053  2.133977  4.147736  8.844814  5.26978  11.613219  8.844815  5.26978  11.613219  3.555092  20.315411  8.525139  164.703066  38.774763  173.714659  -39.24417  -4.014261  73.187673  50.68982  -40.760425  36.311516  29.949887  -8.603196  19.100172  120.557904  64.885789  61.892694  -26.075495  -5.932343  -105.118506  71.783191  29.400966  3.938631  5.42186  9.99596  3.119308  4.004654  7.525467  2.244227  
0.0  101.685394  0.0  59.75342  -52.854544  -147.971649  44.345594  -31.376416  -45.170324  18.903841  27.605105  94.571521  -3.924032  -4.426806  -2.39168  -13.437668  14.800461  -13.807274  11.523377  -1.033962  30.829243  9.263117  19.694827  7.114092  2.968584  1.893108  4.116766  8.422329  4.643594  11.483437  8.422329  4.643593  11.483437  3.581415  20.704771  9.064369  163.959165  39.123617  174.72558  -39.318644  -4.960857  72.975535  50.304686  -40.660094  36.473022  29.260147  -8.154352  19.479515  117.980265  63.95002  61.216993  -26.209336  -5.350761  -105.441823  71.410999  29.425411  3.730902  5.267409  9.943699  3.077811  3.890166  7.485081  2.216244  
0.0  101.685394  0.0  54.747758  -52.258498  -143.929503  44.390141  -29.7349  -46.952131  17.68194  26.251037  95.577405  -5.211018  -4.330499  -2.878772  -11.133474  13.473052  -12.878756  11.411482  -0.707569  32.530886  8.350621  19.548041  7.605013  2.784461  1.592807  4.072935  7.862612  3.864712  11.311485  7.862612  3.864712  11.311484  3.59924  21.075355  9.854301  162.996839  39.487757  175.620872  -39.598911  -5.66473  72.830632  49.978905  -40.45628  36.592808  28.313852  -7.610906  20.068788  114.861342  62.959424  59.772715  -26.273508  -4.800573  -105.71208  71.234893  29.504273  3.55756  5.137918  9.860399  3.111002  3.793346  7.422202  2.244012  
